<svg xmlns="http://www.w3.org/2000/svg" width="21" height="21" viewBox="0 0 21 21" fill="none">
<path d="M3.75014 2.69336V3.64669L3.41347 3.53003C3.24347 3.47003 3.14014 3.41336 3.14014 3.12336C3.14014 2.88669 3.3168 2.69336 3.53347 2.69336H3.75014V2.69336Z" fill="#DD5928"/>
<path d="M4.86 4.87685C4.86 5.11352 4.68333 5.30685 4.46667 5.30685H4.25V4.35352L4.58667 4.47018C4.75667 4.53018 4.86 4.58685 4.86 4.87685Z" fill="#DD5928"/>
<path d="M5.3965 0.666504H2.60317C1.38984 0.666504 0.666504 1.38984 0.666504 2.60317V5.3965C0.666504 6.60984 1.38984 7.33317 2.60317 7.33317H5.3965C6.60984 7.33317 7.33317 6.60984 7.33317 5.3965V2.60317C7.33317 1.38984 6.60984 0.666504 5.3965 0.666504ZM4.75317 3.99984C5.01317 4.08984 5.35984 4.27984 5.35984 4.8765C5.35984 5.38984 4.95984 5.8065 4.4665 5.8065H4.24984V5.99984C4.24984 6.1365 4.1365 6.24984 3.99984 6.24984C3.86317 6.24984 3.74984 6.1365 3.74984 5.99984V5.8065H3.62984C3.08317 5.8065 2.63984 5.34317 2.63984 4.7765C2.63984 4.63984 2.74984 4.5265 2.88984 4.5265C3.0265 4.5265 3.13984 4.63984 3.13984 4.7765C3.13984 5.06984 3.35984 5.3065 3.62984 5.3065H3.74984V4.1765L3.2465 3.99984C2.9865 3.90984 2.63984 3.71984 2.63984 3.12317C2.63984 2.60984 3.03984 2.19317 3.53317 2.19317H3.74984V1.99984C3.74984 1.86317 3.86317 1.74984 3.99984 1.74984C4.1365 1.74984 4.24984 1.86317 4.24984 1.99984V2.19317H4.36984C4.9165 2.19317 5.35984 2.6565 5.35984 3.22317C5.35984 3.35984 5.24984 3.47317 5.10984 3.47317C4.97317 3.47317 4.85984 3.35984 4.85984 3.22317C4.85984 2.92984 4.63984 2.69317 4.36984 2.69317H4.24984V3.82317L4.75317 3.99984Z" fill="#DD5928"/>
<path d="M20.4999 14.8202C20.4999 14.9702 20.4499 15.1202 20.3199 15.2502C18.8699 16.7102 16.2899 19.3102 14.8099 20.8002C14.6799 20.9402 14.5099 21.0002 14.3399 21.0002C14.0099 21.0002 13.6899 20.7402 13.6899 20.3602V16.8602C13.6899 15.4002 14.9299 14.1902 16.4499 14.1902C17.3999 14.1802 18.7199 14.1802 19.8499 14.1802C20.2399 14.1802 20.4999 14.4902 20.4999 14.8202Z" fill="#C1C4D6"/>
<path d="M15.63 1H9.5C8.95 1 8.5 1.45 8.5 2V5.5C8.5 7.16 7.16 8.5 5.5 8.5H2.5C1.95 8.5 1.5 8.95 1.5 9.5V16.13C1.5 18.82 3.68 21 6.37 21H11.19C11.74 21 12.19 20.55 12.19 20V16.86C12.19 14.56 14.1 12.69 16.45 12.69C16.98 12.68 18.27 12.68 19.5 12.68C20.05 12.68 20.5 12.24 20.5 11.68V5.87C20.5 3.18 18.32 1 15.63 1ZM7.72 16.01H5.08C4.67 16.01 4.33 15.67 4.33 15.26C4.33 14.84 4.67 14.5 5.08 14.5H7.72C8.15 14.5 8.47 14.84 8.47 15.26C8.47 15.67 8.15 16.01 7.72 16.01ZM10.51 12.3H5.08C4.67 12.3 4.33 11.96 4.33 11.55C4.33 11.13 4.67 10.79 5.08 10.79H10.51C10.92 10.79 11.27 11.13 11.27 11.55C11.27 11.96 10.92 12.3 10.51 12.3Z" fill="#C1C4D6"/>
</svg>