<svg width="359" height="325" viewBox="0 0 359 325" fill="none" xmlns="http://www.w3.org/2000/svg">
<g clip-path="url(#clip0_22729_58046)">
<path d="M166.173 168.899L144.151 167.45V167.09L141.45 167.27L138.742 167.09V167.45L116.72 168.899L100.475 302.446H116.72L140.902 195.97H141.991L166.173 302.446H182.417L166.173 168.899Z" fill="#101840" stroke="#101840" stroke-width="0.999782" stroke-miterlimit="10" stroke-linecap="round" stroke-linejoin="round"/>
<path d="M100.475 302.449L96.5063 308.587L84.2308 314.005C84.2308 314.005 82.062 315.085 82.062 317.614C82.062 320.142 82.062 322.303 82.062 322.303H117.071C117.071 322.303 117.431 318.334 117.071 314.725C116.711 311.116 116.711 302.449 116.711 302.449H100.475Z" fill="#474D66" stroke="#101840" stroke-width="0.999782" stroke-miterlimit="10" stroke-linecap="round" stroke-linejoin="round"/>
<path d="M82.0703 318.332C82.0703 320.535 82.0703 322.301 82.0703 322.301H117.079C117.079 322.301 117.234 320.552 117.242 318.332H82.0703Z" fill="#101840" stroke="#101840" stroke-width="0.999782" stroke-miterlimit="10" stroke-linecap="round" stroke-linejoin="round"/>
<path d="M182.349 302.449L186.318 308.587L198.593 314.005C198.593 314.005 200.762 315.085 200.762 317.614C200.762 320.142 200.762 322.303 200.762 322.303H165.753C165.753 322.303 165.393 318.334 165.753 314.725C166.113 311.116 166.113 302.449 166.113 302.449H182.349Z" fill="#474D66" stroke="#101840" stroke-width="0.999782" stroke-miterlimit="10" stroke-linecap="round" stroke-linejoin="round"/>
<path d="M200.754 318.332C200.754 320.535 200.754 322.301 200.754 322.301H165.744C165.744 322.301 165.59 320.552 165.582 318.332H200.754Z" fill="#101840" stroke="#101840" stroke-width="0.999782" stroke-miterlimit="10" stroke-linecap="round" stroke-linejoin="round"/>
<path d="M107.393 106.766C107.393 106.766 81.7021 142.906 81.7021 145.555C81.7021 148.204 85.7911 168.657 92.2889 170.578C98.7867 172.506 102.396 169.137 103.596 162.4C104.796 155.662 100.707 146.035 100.707 146.035L112.742 135.208L107.393 106.766Z" fill="#E47A53" stroke="#101840" stroke-width="0.999782" stroke-miterlimit="10" stroke-linecap="round" stroke-linejoin="round"/>
<path d="M102.404 161.431C102.404 161.431 109.862 160.231 111.791 160.711C113.719 161.191 115.16 165.769 115.16 165.769C115.16 165.769 115.88 172.506 114.679 173.947C113.479 175.387 107.702 177.075 105.293 177.555C102.884 178.036 97.835 172.498 95.9062 169.129C93.9775 165.769 97.3464 159.991 102.404 161.431Z" fill="#F2BEAB" stroke="#101840" stroke-width="0.999782" stroke-miterlimit="10" stroke-linecap="round" stroke-linejoin="round"/>
<path d="M112.802 105.122L107.393 106.768L115.914 163.636H166.559L174.265 107.094L167.382 104.47L141.982 98.8984L112.802 105.122Z" fill="#E47A53" stroke="#101840" stroke-width="0.999782" stroke-miterlimit="10" stroke-linecap="round" stroke-linejoin="round"/>
<path d="M169.353 124.136L168.204 132.331L159.349 134.465L150.34 130.857L150.991 123.484L169.353 124.136Z" fill="#101840" stroke="#101840" stroke-width="0.999782" stroke-miterlimit="10" stroke-linecap="round" stroke-linejoin="round"/>
<path d="M158.363 130.779C158.363 129.922 159.058 129.219 159.923 129.219C160.781 129.219 161.484 129.913 161.484 130.779C161.484 131.645 160.789 132.339 159.923 132.339C159.066 132.33 158.363 131.636 158.363 130.779Z" fill="#474D66" stroke="#101840" stroke-width="0.999782" stroke-miterlimit="10" stroke-linecap="round" stroke-linejoin="round"/>
<path d="M136.573 109.387L141.322 114.959L135.261 153.637L141.648 163.796L149.191 153.149L142.796 115.122L148.205 109.876L142.471 102.504L136.573 109.387Z" fill="#101840" stroke="#101840" stroke-width="0.999782" stroke-miterlimit="10" stroke-linecap="round" stroke-linejoin="round"/>
<path d="M131.978 99.7188L110.179 105.119L110.839 107.742L132.141 101.845L131.978 99.7188Z" fill="#101840" stroke="#101840" stroke-width="0.999782" stroke-miterlimit="10" stroke-linecap="round" stroke-linejoin="round"/>
<path d="M149.843 99.0586L171.642 104.468L170.991 107.091L149.68 101.193L149.843 99.0586Z" fill="#101840" stroke="#101840" stroke-width="0.999782" stroke-miterlimit="10" stroke-linecap="round" stroke-linejoin="round"/>
<path d="M171.642 104.473C171.642 104.473 179.888 106.333 184.937 109.222C189.995 112.111 191.195 118.608 188.306 125.826C185.418 133.044 176.511 132.084 172.422 130.155C168.333 128.226 167.124 121.009 167.853 117.88" fill="#E47A53"/>
<path d="M171.642 104.473C171.642 104.473 179.888 106.333 184.937 109.222C189.995 112.111 191.195 118.608 188.306 125.826C185.418 133.044 176.511 132.084 172.422 130.155C168.333 128.226 167.124 121.009 167.853 117.88" stroke="#101840" stroke-width="0.999782" stroke-miterlimit="10" stroke-linecap="round" stroke-linejoin="round"/>
<path d="M132.964 96.9347L130.504 98.572L131.164 115.125L141.811 107.581L152.963 115.288L153.94 98.8977L150.992 96.4375L132.964 96.9347Z" fill="#E47A53" stroke="#101840" stroke-width="0.999782" stroke-miterlimit="10" stroke-linecap="round" stroke-linejoin="round"/>
<path d="M154.498 77.2427C154.498 77.2427 160.55 75.7683 161.698 69.7163C162.847 63.6642 151.883 56.3007 144.357 54.9891C136.83 53.6776 125.703 61.5297 123.903 66.9303C122.103 72.3308 129.141 77.7313 136.667 78.8714C144.185 80.0201 154.498 77.2427 154.498 77.2427Z" fill="#101840" stroke="#101840" stroke-width="0.999782" stroke-miterlimit="10" stroke-linecap="round" stroke-linejoin="round"/>
<path d="M131.918 78.2194C131.918 78.2194 128.644 73.1447 127.829 77.5679C127.015 81.9827 130.444 83.9457 131.918 83.7828C133.393 83.62 131.918 78.2194 131.918 78.2194Z" fill="#F2BEAB" stroke="#101840" stroke-width="0.999782" stroke-miterlimit="10" stroke-linecap="round" stroke-linejoin="round"/>
<path d="M153.186 78.2194C153.186 78.2194 156.461 73.1447 157.275 77.5679C158.089 81.9827 154.66 83.9457 153.186 83.7828C151.712 83.62 153.186 78.2194 153.186 78.2194Z" fill="#F2BEAB" stroke="#101840" stroke-width="0.999782" stroke-miterlimit="10" stroke-linecap="round" stroke-linejoin="round"/>
<path d="M132.639 88.2422V99.0604L141.811 107.581L152.141 98.7346V88.5679L132.639 88.2422Z" fill="#F2BEAB" stroke="#101840" stroke-width="0.999782" stroke-miterlimit="10" stroke-linecap="round" stroke-linejoin="round"/>
<path d="M131.266 74.9558C131.266 74.9558 130.778 85.0968 131.592 88.3714C132.407 91.646 137.807 98.5123 142.059 99.9868C146.311 101.461 152.2 92.6232 153.511 89.6829C154.823 86.7341 154.326 74.3043 154.326 74.3043C154.326 74.3043 152.526 70.0525 148.925 68.7409C145.334 67.4293 134.207 65.1405 131.266 74.9558Z" fill="#F2BEAB" stroke="#101840" stroke-width="0.999782" stroke-miterlimit="10" stroke-linecap="round" stroke-linejoin="round"/>
<path d="M138.073 80.3387C138.073 81.1102 137.721 81.736 137.284 81.736C136.847 81.736 136.496 81.1102 136.496 80.3387C136.496 79.5672 136.847 78.9414 137.284 78.9414C137.713 78.9414 138.073 79.5672 138.073 80.3387Z" fill="#101840"/>
<path d="M148.111 80.3387C148.111 81.1102 147.76 81.736 147.323 81.736C146.886 81.736 146.534 81.1102 146.534 80.3387C146.534 79.5672 146.886 78.9414 147.323 78.9414C147.751 78.9414 148.111 79.5672 148.111 80.3387Z" fill="#101840"/>
<path d="M139.779 84.25C139.041 84.25 138.441 84.73 138.441 85.3215C138.441 85.913 139.041 86.3931 139.779 86.3931C140.147 86.3931 140.49 86.2731 140.73 86.0759C141.15 86.6502 141.93 87.0446 142.822 87.0446C143.679 87.0446 144.433 86.6845 144.862 86.1445C145.093 86.2988 145.385 86.3931 145.711 86.3931C146.448 86.3931 147.048 85.913 147.048 85.3215C147.048 84.73 146.448 84.25 145.711 84.25" fill="#F2BEAB"/>
<path d="M139.779 84.25C139.041 84.25 138.441 84.73 138.441 85.3215C138.441 85.913 139.041 86.3931 139.779 86.3931C140.147 86.3931 140.49 86.2731 140.73 86.0759C141.15 86.6502 141.93 87.0446 142.822 87.0446C143.679 87.0446 144.433 86.6845 144.862 86.1445C145.093 86.2988 145.385 86.3931 145.711 86.3931C146.448 86.3931 147.048 85.913 147.048 85.3215C147.048 84.73 146.448 84.25 145.711 84.25" stroke="#101840" stroke-width="0.999782" stroke-miterlimit="10" stroke-linecap="round" stroke-linejoin="round"/>
<path d="M141.073 90.9609H144.494" stroke="#101840" stroke-width="0.999782" stroke-miterlimit="10" stroke-linecap="round" stroke-linejoin="round"/>
<path d="M130.89 77.4168C130.89 77.4168 131.01 80.7 132.107 79.8514C133.204 79.0027 133.564 73.405 132.596 72.6764C131.618 71.9392 130.89 75.711 130.89 77.4168Z" fill="#101840" stroke="#101840" stroke-width="0.999782" stroke-miterlimit="10" stroke-linecap="round" stroke-linejoin="round"/>
<path d="M152.012 77.4168C152.012 77.4168 152.132 80.7 153.229 79.8514C154.326 79.0027 154.686 73.405 153.718 72.6764C152.74 71.9392 152.012 75.711 152.012 77.4168Z" fill="#101840" stroke="#101840" stroke-width="0.999782" stroke-miterlimit="10" stroke-linecap="round" stroke-linejoin="round"/>
<path d="M130.89 74.7389C130.89 74.7389 131.258 75.0304 131.25 75.1847C132.836 76.0419 136.479 77.6192 142.377 77.9364C147.443 78.2107 151.78 76.4105 154.352 74.9961C154.335 74.5503 154.326 74.2932 154.326 74.2932C154.181 70.4614 151.326 67.9068 147.803 66.921C144.434 65.9866 140.568 66.1409 137.31 67.4439C135.63 68.1211 134.096 69.1327 132.973 70.5728C132.604 71.0528 130.29 74.2589 130.89 74.7389Z" fill="#474D66" stroke="#101840" stroke-width="0.999782" stroke-miterlimit="10" stroke-linecap="round" stroke-linejoin="round"/>
<path d="M131.267 74.957C131.267 74.957 135.356 76.1057 142.394 75.7714C149.432 75.4456 154.326 74.957 154.326 74.957C154.326 74.957 149.526 79.8261 142.497 80.1518C134.885 80.5033 131.267 74.957 131.267 74.957Z" fill="#474D66" stroke="#101840" stroke-width="0.999782" stroke-miterlimit="10" stroke-linecap="round" stroke-linejoin="round"/>
<path d="M113.299 124.136L114.439 132.331L123.295 134.465L132.304 130.857L131.653 123.484L113.299 124.136Z" fill="#101840" stroke="#101840" stroke-width="0.999782" stroke-miterlimit="10" stroke-linecap="round" stroke-linejoin="round"/>
<path d="M124.28 130.779C124.28 129.922 123.586 129.219 122.72 129.219C121.863 129.219 121.16 129.913 121.16 130.779C121.16 131.645 121.855 132.339 122.72 132.339C123.578 132.33 124.28 131.636 124.28 130.779Z" fill="#474D66" stroke="#101840" stroke-width="0.999782" stroke-miterlimit="10" stroke-linecap="round" stroke-linejoin="round"/>
<path d="M167.133 163.121H115.16V171.299H167.133V163.121Z" fill="#474D66" stroke="#101840" stroke-width="0.999782" stroke-miterlimit="10" stroke-linecap="round" stroke-linejoin="round"/>
<path d="M125.146 173.705H113.839C112.579 173.705 111.55 172.685 111.55 171.416V165.879C111.55 164.619 112.57 163.59 113.839 163.59H125.146C126.406 163.59 127.435 164.61 127.435 165.879V171.416C127.426 172.685 126.406 173.705 125.146 173.705Z" fill="#474D66" stroke="#101840" stroke-width="0.999782" stroke-miterlimit="10" stroke-linecap="round" stroke-linejoin="round"/>
<path d="M166.533 173.705H155.226C153.966 173.705 152.938 172.685 152.938 171.416V165.879C152.938 164.619 153.958 163.59 155.226 163.59H166.533C167.793 163.59 168.822 164.61 168.822 165.879V171.416C168.822 172.685 167.793 173.705 166.533 173.705Z" fill="#474D66" stroke="#101840" stroke-width="0.999782" stroke-miterlimit="10" stroke-linecap="round" stroke-linejoin="round"/>
<path d="M147.64 163.602H136.333V170.819H147.64V163.602Z" fill="white" stroke="#101840" stroke-width="0.999782" stroke-miterlimit="10" stroke-linecap="round" stroke-linejoin="round"/>
<path d="M100.715 146.038C100.715 146.038 93.4975 145.558 90.8486 140.98" stroke="#101840" stroke-width="0.999782" stroke-miterlimit="10" stroke-linecap="round" stroke-linejoin="round"/>
<path d="M180.969 124.863C187.549 124.863 192.884 119.26 192.884 112.348C192.884 105.435 187.549 99.832 180.969 99.832C174.388 99.832 169.053 105.435 169.053 112.348C169.053 119.26 174.388 124.863 180.969 124.863Z" fill="#E47A53" stroke="#101840" stroke-width="0.999782" stroke-miterlimit="10" stroke-linecap="round" stroke-linejoin="round"/>
<path d="M180.969 114.36C186.12 114.36 190.295 110.618 190.295 106.002C190.295 101.387 186.12 97.6445 180.969 97.6445C175.818 97.6445 171.642 101.387 171.642 106.002C171.642 110.618 175.818 114.36 180.969 114.36Z" fill="#E47A53" stroke="#101840" stroke-width="0.999782" stroke-miterlimit="10" stroke-linecap="round" stroke-linejoin="round"/>
<path d="M180.969 108.224C186.12 108.224 190.296 104.482 190.296 99.8658C190.296 95.2498 186.12 91.5078 180.969 91.5078C175.818 91.5078 171.643 95.2498 171.643 99.8658C171.643 104.482 175.818 108.224 180.969 108.224Z" fill="#F2BEAB" stroke="#101840" stroke-width="0.999782" stroke-miterlimit="10" stroke-linecap="round" stroke-linejoin="round"/>
<path d="M165.985 81.8336C165.985 81.8336 166.139 94.1605 166.774 97.7951C167.408 101.43 169.937 106.17 173.408 106.17C176.889 106.17 180.206 104.902 180.206 104.902C180.206 104.902 184.312 107.113 188.264 106.479C192.216 105.844 191.582 100.315 191.582 97.9408C191.582 95.5663 191.11 77.7103 191.11 77.7103C191.11 77.7103 191.427 75.9701 189.841 75.653C188.264 75.3358 187.467 75.3358 187.467 75.3358V71.5383C187.467 71.5383 186.833 70.2696 184.784 70.2696C182.726 70.2696 182.572 70.7411 182.572 70.7411V67.2607C182.572 67.2607 180.866 64.4919 178.62 65.8377C177.043 66.7892 177.043 68.3665 177.043 68.3665L176.889 71.684C176.889 71.684 173.091 70.261 172.783 72.4727C172.465 74.6843 171.831 88.2799 171.831 88.2799C171.831 88.2799 171.36 84.0109 170.562 81.9536C169.782 79.9391 165.985 79.9391 165.985 81.8336Z" fill="#F2BEAB" stroke="#101840" stroke-width="0.999782" stroke-miterlimit="10" stroke-linecap="round" stroke-linejoin="round"/>
<path d="M176.897 71.7188L177.206 86.2659" stroke="#101840" stroke-width="0.999782" stroke-miterlimit="10" stroke-linecap="round" stroke-linejoin="round"/>
<path d="M182.581 70.7773L182.743 86.4217" stroke="#101840" stroke-width="0.999782" stroke-miterlimit="10" stroke-linecap="round" stroke-linejoin="round"/>
<path d="M187.484 75.3555L187.167 86.2679" stroke="#101840" stroke-width="0.999782" stroke-miterlimit="10" stroke-linecap="round" stroke-linejoin="round"/>
<path d="M174.84 86.1016L189.225 86.7359" stroke="#101840" stroke-width="0.999782" stroke-miterlimit="10" stroke-linecap="round" stroke-linejoin="round"/>
<path d="M171.839 88.3164C171.839 88.3164 171.822 90.4166 173.382 91.3938C174.943 92.3711 178.457 94.9085 178.851 99.006" stroke="#101840" stroke-width="0.999782" stroke-miterlimit="10" stroke-linecap="round" stroke-linejoin="round"/>
<path d="M266.76 49.5933V51.4621H262.19V58.1141H267.797V60.0086H260.107V41.3125H267.797V43.207H262.19V49.5933H266.76Z" fill="#101840"/>
<path d="M273.891 41.3125C276.832 41.3125 278.058 42.8041 278.058 45.5815V47.0988C278.058 49.1561 277.337 50.4334 275.734 50.9477C277.44 51.4535 278.083 52.8422 278.083 54.8481V57.7627C278.083 58.5856 278.109 59.3657 278.46 60.0086H276.352C276.112 59.4771 276.009 58.9971 276.009 57.7369V54.7967C276.009 52.6879 275.023 52.0193 273.283 52.0193H271.817V60.0086H269.734V41.3125H273.891ZM273.36 50.1334C275.014 50.1334 276 49.6019 276 47.5703V45.7786C276 44.0985 275.383 43.2155 273.84 43.2155H271.808V50.1334H273.36Z" fill="#101840"/>
<path d="M284.41 41.3125C287.35 41.3125 288.576 42.8041 288.576 45.5815V47.0988C288.576 49.1561 287.856 50.4334 286.253 50.9477C287.959 51.4535 288.602 52.8422 288.602 54.8481V57.7627C288.602 58.5856 288.628 59.3657 288.979 60.0086H286.87C286.63 59.4771 286.527 58.9971 286.527 57.7369V54.7967C286.527 52.6879 285.542 52.0193 283.801 52.0193H282.335V60.0086H280.252V41.3125H284.41ZM283.879 50.1334C285.533 50.1334 286.519 49.6019 286.519 47.5703V45.7786C286.519 44.0985 285.902 43.2155 284.359 43.2155H282.327V50.1334H283.879Z" fill="#101840"/>
<path d="M290.607 45.8304C290.607 42.9758 292.022 41.1328 294.885 41.1328C297.765 41.1328 299.18 42.9758 299.18 45.8304V55.4999C299.18 58.3288 297.765 60.1975 294.885 60.1975C292.03 60.1975 290.607 58.3288 290.607 55.4999V45.8304ZM292.665 55.6028C292.665 57.3087 293.385 58.303 294.885 58.303C296.402 58.303 297.097 57.3172 297.097 55.6028V45.719C297.097 44.0388 296.402 43.0187 294.885 43.0187C293.393 43.0187 292.665 44.0302 292.665 45.719V55.6028Z" fill="#101840"/>
<path d="M305.318 41.3125C308.258 41.3125 309.484 42.8041 309.484 45.5815V47.0988C309.484 49.1561 308.764 50.4334 307.161 50.9477C308.867 51.4535 309.51 52.8422 309.51 54.8481V57.7627C309.51 58.5856 309.535 59.3657 309.887 60.0086H307.778C307.538 59.4771 307.435 58.9971 307.435 57.7369V54.7967C307.435 52.6879 306.449 52.0193 304.709 52.0193H303.243V60.0086H301.16V41.3125H305.318ZM304.786 50.1334C306.441 50.1334 307.426 49.6019 307.426 47.5703V45.7786C307.426 44.0985 306.809 43.2155 305.266 43.2155H303.235V50.1334H304.786Z" fill="#101840"/>
<path d="M229.53 117.696L248.595 72.6055H260.039V117.704H264.994V127.236H260.039V139.349H249.744V127.236H229.53V117.696ZM249.744 117.696V92.6217L239.157 117.696H249.744Z" fill="#101840"/>
<path d="M268.903 88.6158C268.903 77.9347 274.526 71.8398 284.822 71.8398C295.117 71.8398 300.74 77.9433 300.74 88.6158V123.325C300.74 134.006 295.117 140.101 284.822 140.101C274.526 140.101 268.903 133.997 268.903 123.325V88.6158ZM279.387 123.993C279.387 128.76 281.487 130.568 284.822 130.568C288.156 130.568 290.256 128.76 290.256 123.993V87.9557C290.256 83.1895 288.156 81.3808 284.822 81.3808C281.487 81.3808 279.387 83.1895 279.387 87.9557V123.993Z" fill="#101840"/>
<path d="M327.725 89.0015C327.725 82.9923 325.625 81.3722 322.29 81.3722C318.956 81.3722 316.856 83.1809 316.856 87.9471V92.2418H306.938V88.6158C306.938 77.9347 312.278 71.8398 322.573 71.8398C332.869 71.8398 338.209 77.9433 338.209 88.6158V90.3302C338.209 97.4795 335.92 101.963 330.871 104.063C336.117 106.352 338.209 111.307 338.209 118.079V123.325C338.209 134.006 332.869 140.101 322.573 140.101C312.278 140.101 306.938 133.997 306.938 123.325V117.796H316.856V123.993C316.856 128.76 318.956 130.568 322.29 130.568C325.625 130.568 327.725 128.948 327.725 123.033V117.787C327.725 111.589 325.625 109.301 320.859 109.301H317.327V99.7683H321.425C325.334 99.7683 327.717 98.0538 327.717 92.7133V89.0015H327.725Z" fill="#101840"/>
<path d="M41.2145 321.924H28.999L45.2863 208.324H57.5103L41.2145 321.924Z" fill="#101840" stroke="#101840" stroke-width="0.999782" stroke-miterlimit="10"/>
<path d="M65.6621 321.924H77.8775L61.5817 208.324H49.3662L65.6621 321.924Z" fill="white" stroke="#101840" stroke-width="0.999782" stroke-miterlimit="10"/>
<path d="M214.64 321.924H202.424L218.72 208.324H230.936L214.64 321.924Z" fill="#101840" stroke="#101840" stroke-width="0.999782" stroke-miterlimit="10"/>
<path d="M239.088 321.924H251.303L235.007 208.324H222.792L239.088 321.924Z" fill="white" stroke="#101840" stroke-width="0.999782" stroke-miterlimit="10"/>
<path d="M247.625 190.516H14.52V213.112H247.625V190.516Z" fill="#E47A53" stroke="#101840" stroke-width="0.999782" stroke-miterlimit="10"/>
<path d="M253.309 190.516H20.2031V213.112H253.309V190.516Z" fill="#E47A53" stroke="#101840" stroke-width="0.999782" stroke-miterlimit="10"/>
<path d="M24.0181 213.112H43.8114L54.0295 190.516H34.2448L24.0181 213.112Z" fill="#101840"/>
<path d="M102.334 190.516H82.5495L72.3228 213.112H92.1075L102.334 190.516Z" fill="#101840"/>
<path d="M247.248 190.516H227.455L217.237 213.112H237.022L247.248 190.516Z" fill="#101840"/>
<path d="M198.943 190.516H179.158L168.932 213.112H188.716L198.943 190.516Z" fill="#101840"/>
<path d="M150.639 190.516H130.855L120.628 213.112H140.413L150.639 190.516Z" fill="#101840"/>
<path d="M252.032 200.535H213.457" stroke="#101840" stroke-width="0.999782" stroke-miterlimit="10"/>
<path d="M251.363 204.316H245.269" stroke="#101840" stroke-width="0.999782" stroke-miterlimit="10"/>
<path d="M19.2178 203.375H57.7929" stroke="#101840" stroke-width="0.999782" stroke-miterlimit="10"/>
<path d="M19.895 199.121H68.6283" stroke="#101840" stroke-width="0.999782" stroke-miterlimit="10"/>
<path d="M316.933 316.973H250.807V321.936H316.933V316.973Z" fill="#101840" stroke="#101840" stroke-width="0.999782" stroke-miterlimit="10" stroke-linecap="round" stroke-linejoin="round"/>
<path d="M305.772 316.828H261.968L279.138 223.434H288.602L305.772 316.828Z" fill="#E47A53" stroke="#101840" stroke-width="0.999782" stroke-miterlimit="10" stroke-linecap="round" stroke-linejoin="round"/>
<path d="M272.76 258.143H294.988L292.862 246.57H274.886L272.76 258.143Z" fill="white" stroke="#101840" stroke-width="0.999782" stroke-miterlimit="10" stroke-linecap="round" stroke-linejoin="round"/>
<path d="M299.189 301.242L300.295 307.629" stroke="#101840" stroke-width="0.999782" stroke-miterlimit="10" stroke-linecap="round" stroke-linejoin="round"/>
<path d="M286.682 228.59L297.808 293.199" stroke="#101840" stroke-width="0.999782" stroke-miterlimit="10" stroke-linecap="round" stroke-linejoin="round"/>
<path d="M352.508 321.926H358.432" stroke="#101840" stroke-width="0.999782" stroke-miterlimit="10" stroke-linecap="round" stroke-linejoin="round"/>
<path d="M0.49707 321.926H344.236" stroke="#101840" stroke-width="0.999782" stroke-miterlimit="10" stroke-linecap="round" stroke-linejoin="round"/>
</g>
<defs>
<clipPath id="clip0_22729_58046">
<rect width="358.938" height="325" fill="white"/>
</clipPath>
</defs>
</svg>
