<svg xmlns="http://www.w3.org/2000/svg" width="24" height="25" viewBox="0 0 24 25" fill="none">
<path d="M21 15C21 18.87 17.87 22 14 22L15.05 20.25" stroke="#C1C4D6" stroke-width="1.5" stroke-linecap="round" stroke-linejoin="round"/>
<path d="M3 11C3 7.13 6.13 4 10 4L8.95 5.75" stroke="#C1C4D6" stroke-width="1.5" stroke-linecap="round" stroke-linejoin="round"/>
<path d="M18.0005 11.3752C16.0005 11.3752 14.3755 9.94019 14.3755 8.17519V6.3252C14.3755 6.1202 14.5455 5.9502 14.7505 5.9502C14.9555 5.9502 15.1255 6.1202 15.1255 6.3252C15.1255 7.6352 16.3605 8.62519 18.0005 8.62519C19.6405 8.62519 20.8755 7.6352 20.8755 6.3252C20.8755 6.1202 21.0455 5.9502 21.2505 5.9502C21.4555 5.9502 21.6255 6.1202 21.6255 6.3252V8.17519C21.6255 9.94019 20.0005 11.3752 18.0005 11.3752ZM15.1255 8.23019C15.1605 9.55519 16.4355 10.6252 18.0005 10.6252C19.5655 10.6252 20.8405 9.55519 20.8755 8.23019C20.2255 8.93519 19.1955 9.37519 18.0005 9.37519C16.8055 9.37519 15.7805 8.93519 15.1255 8.23019Z" fill="#DD5928"/>
<path d="M18.0005 6.87451C16.6205 6.87451 15.3805 6.25451 14.7755 5.25451C14.5155 4.82951 14.3755 4.33451 14.3755 3.82451C14.3755 2.96451 14.7605 2.15451 15.4555 1.54451C16.1355 0.949512 17.0405 0.624512 18.0005 0.624512C18.9605 0.624512 19.8605 0.949513 20.5455 1.53951C21.2405 2.15451 21.6255 2.96451 21.6255 3.82451C21.6255 4.33451 21.4855 4.82451 21.2255 5.25451C20.6205 6.25451 19.3805 6.87451 18.0005 6.87451ZM18.0005 1.37451C17.2205 1.37451 16.4905 1.63451 15.9455 2.11451C15.4155 2.57451 15.1255 3.18451 15.1255 3.82451C15.1255 4.19951 15.2255 4.54951 15.4155 4.86451C15.8905 5.64451 16.8805 6.12451 18.0005 6.12451C19.1205 6.12451 20.1105 5.63951 20.5855 4.86451C20.7805 4.54951 20.8755 4.19951 20.8755 3.82451C20.8755 3.18451 20.5855 2.57451 20.0505 2.10451C19.5055 1.63451 18.7805 1.37451 18.0005 1.37451Z" fill="#DD5928"/>
<path d="M18.0005 9.37451C15.9355 9.37451 14.3755 8.06451 14.3755 6.32451V3.82451C14.3755 2.05951 16.0005 0.624512 18.0005 0.624512C18.9605 0.624512 19.8605 0.949513 20.5455 1.53951C21.2405 2.15451 21.6255 2.96451 21.6255 3.82451V6.32451C21.6255 8.06451 20.0655 9.37451 18.0005 9.37451ZM18.0005 1.37451C16.4155 1.37451 15.1255 2.47451 15.1255 3.82451V6.32451C15.1255 7.63451 16.3605 8.62451 18.0005 8.62451C19.6405 8.62451 20.8755 7.63451 20.8755 6.32451V3.82451C20.8755 3.18451 20.5855 2.57451 20.0505 2.10451C19.5055 1.63451 18.7805 1.37451 18.0005 1.37451Z" fill="#DD5928"/>
<path d="M6.7836 22.3709C7.16432 22.3709 7.47296 22.0623 7.47296 21.6815C7.47296 21.3008 7.16432 20.9922 6.7836 20.9922C6.40288 20.9922 6.09424 21.3008 6.09424 21.6815C6.09424 22.0623 6.40288 22.3709 6.7836 22.3709Z" fill="#C1C4D6"/>
<path d="M3.63223 22.3709C4.01296 22.3709 4.32159 22.0623 4.32159 21.6815C4.32159 21.3008 4.01296 20.9922 3.63223 20.9922C3.25151 20.9922 2.94287 21.3008 2.94287 21.6815C2.94287 22.0623 3.25151 22.3709 3.63223 22.3709Z" fill="#C1C4D6"/>
<path d="M2.28918 15.0596L2.21039 16.0247C2.19463 16.2099 2.34039 16.3635 2.52553 16.3635H8.55645C8.7219 16.3635 8.85977 16.2374 8.87159 16.072C8.9228 15.3748 8.39101 14.8075 7.69377 14.8075H2.85248C2.81309 14.6342 2.73431 14.4688 2.61219 14.3309C2.41523 14.1221 2.13949 14 1.85586 14H1.17044C1.00893 14 0.875 14.1339 0.875 14.2954C0.875 14.4569 1.00893 14.5909 1.17044 14.5909H1.85586C1.97798 14.5909 2.09222 14.6421 2.17494 14.7287C2.25766 14.8193 2.29705 14.9375 2.28918 15.0596Z" fill="#C1C4D6"/>
<path d="M8.46215 16.9541H2.4194C2.25396 16.9541 2.12002 17.0802 2.10427 17.2417L1.96246 18.9552C1.90731 19.6288 2.43516 20.2039 3.10877 20.2039H7.48916C8.08005 20.2039 8.60002 19.7194 8.64335 19.1285L8.77335 17.2889C8.7891 17.1077 8.64729 16.9541 8.46215 16.9541Z" fill="#C1C4D6"/>
</svg>